<svg width="269" height="296" viewBox="0 0 269 296" fill="none" xmlns="http://www.w3.org/2000/svg">
<path d="M0.482219 59.167C0.321479 59.247 0.241107 59.4072 0.241107 59.6474L0.160738 60.6081L0.0803689 61.8091V93.114L0 223.458C0 226.26 1.52703 227.301 3.29517 228.262L88.6482 273.498L107.696 283.586L129.315 295.035C129.396 295.115 129.476 295.115 129.557 295.115C129.717 295.115 129.878 295.035 130.039 294.875H130.119C130.2 294.795 130.2 294.714 130.2 294.634V261.888L130.28 121.937C130.28 118.734 128.592 117.694 126.583 116.813L35.3628 74.7794L4.33998 60.5281L2.16999 59.5673L1.04481 59.0869C0.803697 59.0869 0.642959 59.0869 0.482219 59.167ZM120.635 289.19L108.259 282.625L89.2108 272.537L3.85776 227.301C2.00925 226.34 1.12518 225.539 1.12518 223.538L1.20555 93.1941V61.8891L1.28592 60.7683V60.6081C1.52703 60.6882 1.76814 60.7683 1.76814 60.7683L3.85776 61.5689L34.8806 75.8202L126.101 117.694C128.271 118.654 129.155 119.455 129.155 121.777L129.074 261.728C129.074 261.728 129.074 292.393 129.074 293.513C127.628 292.873 120.635 289.19 120.635 289.19Z" fill="black"/>
<path d="M268.198 59.1684L266.912 59.6488L264.902 60.3694L232.272 75.4213L142.338 116.734C140.088 117.775 138.802 118.976 138.802 122.018L138.882 260.128V294.396C138.882 294.476 138.882 294.556 138.963 294.636C138.963 294.716 139.043 294.716 139.043 294.716L139.123 294.796C139.204 294.876 139.364 294.956 139.445 294.956C139.525 294.956 139.605 294.956 139.686 294.876L141.374 294.075C141.374 294.075 143.865 292.874 143.945 292.874L172.959 277.502L265.786 228.263C268.439 226.822 269.001 225.141 269.001 222.739L268.921 89.1122V59.6488C268.921 59.4887 268.841 59.2485 268.68 59.1684C268.519 59.1684 268.358 59.0883 268.198 59.1684ZM140.007 290.152V260.128L139.927 122.018C139.927 119.536 140.891 118.736 142.82 117.855L232.754 76.5422L265.385 61.4902L267.233 60.7697C267.233 60.7697 267.555 60.6896 267.796 60.6095C267.796 61.5703 267.796 89.1923 267.796 89.1923C267.796 89.1923 267.876 222.739 267.876 222.819C267.876 225.221 267.233 226.261 265.304 227.302L172.396 276.541C172.396 276.541 143.383 291.914 143.383 291.994L140.891 293.195C140.891 293.195 140.49 293.355 140.007 293.595C140.007 292.314 140.007 290.152 140.007 290.152Z" fill="black"/>
<path d="M133.574 0.0800637L8.0362 49.1591L5.46435 50.2C5.22324 50.28 5.14287 50.4401 5.0625 50.6803C5.0625 50.6803 5.0625 50.6803 5.0625 50.7604C5.0625 51.0006 5.14287 51.1607 5.38398 51.2408L6.34842 51.8012L7.4736 52.4417L75.0649 83.5065C75.3863 83.6666 75.7078 83.7467 75.8686 83.8267C75.7882 83.8267 75.7078 83.8267 75.6274 83.8267L131.967 109.607C133.414 110.248 135.825 110.248 137.432 109.527C142.817 107.205 148.202 104.723 153.426 102.321L159.293 99.5993L260.398 53.1623L262.327 52.1215L263.533 51.481C263.693 51.4009 263.854 51.1607 263.854 51.0006C263.854 50.7604 263.693 50.6003 263.533 50.5202L262.247 49.8797L260.479 49.0791L228.732 36.7493L171.67 14.4115L157.123 8.80701C134.378 0 133.976 0 133.815 0C133.735 0 133.655 0 133.574 0.0800637ZM8.43805 50.28C8.43805 50.28 133.494 1.36108 133.815 1.20096C135.021 1.60127 144.022 4.96395 156.721 9.84784L171.187 15.4523L228.17 37.63L259.916 49.9598L261.604 50.7604C261.604 50.7604 261.765 50.8405 261.845 50.9205C261.765 50.9205 261.604 51.0807 261.604 51.0807L259.755 52.0414L158.65 98.4784L152.783 101.201C147.559 103.602 142.174 106.084 136.869 108.406C135.503 108.967 133.494 109.047 132.288 108.486L75.9489 82.7058L7.79508 51.4009C7.79508 51.4009 6.91102 50.9205 6.83065 50.8405C7.71472 50.5202 8.43805 50.28 8.43805 50.28Z" fill="black"/>
<path d="M129.315 294.235C121.6 290.151 114.608 286.468 107.696 282.785C72.8955 264.291 38.0952 245.876 3.29499 227.461C1.44647 226.501 0.321289 225.62 0.321289 223.138C0.401659 169.255 0.401664 115.372 0.401664 61.4894C0.401664 60.9289 0.482032 60.3685 0.562402 59.3276C1.76795 59.808 2.81276 60.2083 3.77721 60.6087C44.5248 79.3436 85.2725 98.1585 126.02 116.813C128.19 117.774 129.396 118.735 129.396 121.457C129.315 177.662 129.315 233.786 129.315 289.991C129.315 291.112 129.315 292.233 129.315 294.235Z" fill="url(#paint0_linear_59_104)"/>
<path d="M139.12 294.074C139.12 292.233 139.12 291.032 139.12 289.831C139.12 233.786 139.12 177.741 139.04 121.697C139.04 119.055 140.004 118.014 142.255 116.973C183.163 98.2381 223.991 79.4232 264.819 60.6082C265.703 60.2079 266.668 59.9677 268.114 59.4072V63.1702C268.114 116.252 268.114 169.335 268.195 222.417C268.195 224.899 267.552 226.26 265.301 227.461C224.634 248.918 184.047 270.535 143.38 292.072C142.174 292.713 140.889 293.193 139.12 294.074Z" fill="url(#paint1_linear_59_104)"/>
<path d="M259.915 49.0796C230.339 37.5504 200.762 26.1013 171.186 14.5721C167.248 13.0509 162.024 11.0493 156.639 8.96767C145.388 4.64423 133.814 0.240723 133.493 0.240723L21.6979 44.0356C17.1972 45.797 12.6965 47.5584 7.95465 49.3999L5.38281 50.4407C6.42762 51.0812 6.90984 51.4014 7.39206 51.6416C29.8957 61.9699 52.4797 72.3781 74.9833 82.7064L75.5459 82.9466C94.3525 91.5934 113.079 100.16 131.885 108.727C133.252 109.368 135.502 109.207 136.949 108.647C144.262 105.525 151.496 102.082 158.729 98.7191C192.404 83.2668 226.159 67.7345 259.835 52.2822C260.799 51.8818 261.683 51.3214 262.969 50.6008C261.522 49.8802 260.719 49.3999 259.915 49.0796Z" fill="url(#paint2_linear_59_104)"/>
<path d="M26.3594 171.896L64.0529 151.479L103.434 171.896L91.7806 195.114C91.7806 195.114 77.6355 187.668 43.7997 205.603L26.3594 171.896Z" fill="white"/>
<path d="M32.7891 164.77L64.9371 147.636L96.2814 164.77V151.48L64.9371 140.991L32.7891 152.841V164.77Z" fill="white"/>
<path d="M48.3027 142.352L64.5375 137.388L81.2545 142.352V135.707L64.9394 130.022L48.3027 136.187V142.352Z" fill="white"/>
<path d="M60.4375 127.941L64.456 126.419C64.6971 126.339 64.9382 126.339 65.1793 126.419L69.3586 127.941V125.058C69.3586 123.937 68.4745 123.057 67.3493 123.057H62.4468C61.3216 123.057 60.4375 123.937 60.4375 125.058V127.941Z" fill="white"/>
<path d="M26.3594 204.481C26.3594 204.481 32.3871 215.85 59.5522 202.64C86.7173 189.349 101.345 202.239 103.434 212.808C103.434 212.808 88.6462 199.838 71.2863 207.123C53.9263 214.329 33.4319 225.218 26.3594 204.481Z" fill="white"/>
<path d="M30.2988 215.771C30.2988 215.771 36.3266 227.14 63.4917 213.93C90.6568 200.639 105.284 213.529 107.374 224.098C107.374 224.098 92.5856 211.128 75.2257 218.413C57.9461 225.619 37.3714 236.508 30.2988 215.771Z" fill="white"/>
<path d="M233.635 204.322C233.635 204.883 233.153 205.363 232.59 205.363H224.874C224.312 205.363 223.83 204.883 223.83 204.322V200.399C223.83 199.839 224.312 199.358 224.874 199.358H232.59C233.153 199.358 233.635 199.839 233.635 200.399V204.322ZM222.544 170.695H185.172C183.564 170.695 182.198 169.334 182.198 167.733V158.686C182.198 157.084 183.564 155.723 185.172 155.723H222.544C224.151 155.723 225.517 157.084 225.517 158.686V167.733C225.517 169.414 224.231 170.695 222.544 170.695ZM216.677 202.961C216.677 204.562 215.391 205.843 213.783 205.843H193.852C192.244 205.843 190.958 204.562 190.958 202.961V184.306C190.958 182.705 192.244 181.424 193.852 181.424H213.783C215.391 181.424 216.677 182.705 216.677 184.306V202.961ZM183.725 204.402C183.725 204.883 183.323 205.363 182.76 205.363H174.884C174.402 205.363 173.92 204.963 173.92 204.402V200.319C173.92 199.838 174.322 199.438 174.884 199.438H182.76C183.243 199.438 183.725 199.838 183.725 200.319V204.402ZM243.279 209.286H241.672V194.554C241.672 191.272 239.02 188.63 235.724 188.63H234.117V133.225C234.117 132.425 233.715 131.624 232.992 131.224L228.813 128.902C227.687 128.262 226.241 129.062 226.241 130.343V146.836C225.276 142.833 222.865 140.591 221.177 139.47C220.133 138.83 218.927 138.43 217.641 138.43H203.898H190.155C188.869 138.43 187.663 138.75 186.618 139.47C184.85 140.591 182.519 142.833 181.555 146.836V130.343C181.555 129.062 180.108 128.181 178.983 128.902L174.884 131.224C174.161 131.624 173.759 132.425 173.759 133.225V188.63H172.152C168.856 188.63 166.204 191.272 166.204 194.554V209.286H164.597C163.552 209.286 162.668 210.167 162.668 211.208V218.653C162.668 219.694 163.552 220.575 164.597 220.575H171.107V224.338C171.107 225.859 172.312 227.14 173.92 227.14H181.957C183.484 227.14 184.77 225.939 184.77 224.338V219.935H204.059H223.347V224.338C223.347 225.859 224.553 227.14 226.16 227.14H234.197C235.724 227.14 237.01 225.939 237.01 224.338V220.575H243.52C244.565 220.575 245.449 219.694 245.449 218.653V211.208C245.208 210.167 244.324 209.286 243.279 209.286Z" fill="white"/>
<path d="M213.221 186.627H194.495C193.53 186.627 192.727 185.827 192.727 184.866C192.727 183.905 193.53 183.104 194.495 183.104H213.221C214.185 183.104 214.989 183.905 214.989 184.866C214.989 185.827 214.185 186.627 213.221 186.627Z" fill="white"/>
<path d="M213.221 192.232H194.495C193.53 192.232 192.727 191.431 192.727 190.47C192.727 189.51 193.53 188.709 194.495 188.709H213.221C214.185 188.709 214.989 189.51 214.989 190.47C214.989 191.431 214.185 192.232 213.221 192.232Z" fill="white"/>
<path d="M213.221 197.837H194.495C193.53 197.837 192.727 197.036 192.727 196.075C192.727 195.115 193.53 194.314 194.495 194.314H213.221C214.185 194.314 214.989 195.115 214.989 196.075C214.989 197.036 214.185 197.837 213.221 197.837Z" fill="white"/>
<path d="M213.221 203.521H194.495C193.53 203.521 192.727 202.72 192.727 201.759C192.727 200.799 193.53 199.998 194.495 199.998H213.221C214.185 199.998 214.989 200.799 214.989 201.759C214.989 202.72 214.185 203.521 213.221 203.521Z" fill="white"/>
<path d="M132.771 50.0392C133.012 48.5981 132.289 47.317 130.762 46.5965C129.396 45.956 128.029 45.7158 126.502 45.956C124.573 46.1961 123.207 47.317 121.841 48.518C121.117 49.1585 121.117 49.3186 122.002 49.7189C124.895 51 127.949 51.6405 131.083 51.8807C132.771 51.9607 132.771 51.9607 132.771 50.0392ZM135.102 50.1993C135.102 50.5196 135.102 50.7598 135.102 51.08C135.102 52.0408 135.182 52.1209 136.066 51.9607C137.191 51.8006 138.397 51.7205 139.522 51.4803C141.773 51.08 144.023 50.5196 146.113 49.5588C146.354 49.3987 146.836 49.3186 146.434 48.9183C144.505 46.9167 142.335 45.5556 139.361 45.8759C136.388 46.2762 135.102 47.6373 135.102 50.1993ZM150.051 53.4019C150.051 62.2889 142.898 69.4146 133.977 69.4146C125.056 69.4146 117.822 62.2089 117.822 53.3218C117.822 44.5148 125.136 37.229 133.977 37.229C142.898 37.3091 150.051 44.5148 150.051 53.4019Z" fill="white"/>
<path d="M159.292 63.4899C157.122 63.4899 155.354 65.0912 155.354 67.2529C155.274 69.3346 157.122 71.176 159.292 71.176C161.382 71.176 163.15 69.4947 163.15 67.333C163.15 65.1712 161.543 63.4899 159.292 63.4899ZM159.212 74.4586C155.756 74.4586 152.863 71.9767 152.22 68.4539C151.657 65.1712 153.506 61.8086 156.64 60.6076C156.801 60.5275 156.962 60.5275 157.122 60.4475C157.524 60.3674 157.605 60.0472 157.524 59.7269C157.444 59.3266 157.122 59.4067 156.801 59.4867C154.952 59.807 153.104 60.2073 151.255 60.6076C150.854 60.6877 150.291 61.0079 150.05 60.6877C149.809 60.3674 150.211 59.9671 150.371 59.6468C151.095 57.7253 151.577 55.8038 151.496 53.8022C151.496 53.1617 151.738 52.8414 152.461 52.7614C156.319 52.361 160.176 51.8807 164.034 51.4003C168.374 50.9199 172.795 50.3595 177.135 49.8791C181.957 49.3186 186.859 48.7582 191.681 48.1977C193.209 48.0376 194.736 47.8775 196.263 47.6373C196.825 47.5572 197.066 47.317 197.307 46.8367C198.191 44.5949 199.076 42.4331 199.879 40.1914C199.96 39.9512 200.04 39.711 200.201 39.4708C200.361 38.9904 200.683 38.5901 201.246 38.7502C201.808 38.9103 201.889 39.3907 201.808 39.9512C201.487 42.6733 201.165 45.3955 200.924 48.0376C200.683 50.0392 199.719 51.08 197.629 51.5604C188.949 53.2418 180.269 55.0032 171.589 56.6845C168.455 57.325 165.32 57.8854 162.186 58.526C161.703 58.606 161.141 58.526 161.141 59.3266C161.141 60.0472 161.141 60.5275 162.025 60.8478C165.722 62.2889 167.49 66.2921 166.124 70.0551C164.918 72.6972 162.266 74.4586 159.212 74.4586Z" fill="white"/>
<path d="M109.141 63.4903C106.89 63.4903 105.283 65.1716 105.283 67.3334C105.283 69.4951 107.051 71.2565 109.221 71.1764C111.311 71.1764 113.079 69.335 113.079 67.3334C112.998 65.1716 111.311 63.4903 109.141 63.4903ZM109.141 74.459C105.685 74.459 102.711 71.9771 102.068 68.6144C101.425 65.1716 103.274 61.889 106.488 60.608C107.292 60.2878 107.533 59.8074 107.292 58.9267C107.212 58.4463 106.81 58.5264 106.488 58.4463C102.952 57.7257 99.4962 57.0852 95.9599 56.3646C89.6106 55.0836 83.2614 53.8827 76.9122 52.6016C74.7422 52.2013 72.6526 51.7209 70.4826 51.3206C68.3126 50.9203 67.3481 49.7193 67.107 47.5576C66.8659 45.0756 66.5444 42.5937 66.2229 40.1918C66.2229 39.9516 66.1426 39.7914 66.1426 39.5512C66.1426 39.0709 66.2229 38.6705 66.7855 38.5905C67.2677 38.4304 67.5892 38.7506 67.75 39.231C68.3929 40.7522 68.9555 42.2734 69.5985 43.7946C70.0003 44.7554 70.4022 45.7162 70.7237 46.6769C70.8844 47.2374 71.2863 47.4776 71.8488 47.5576C74.7422 47.8779 77.5551 48.1981 80.4484 48.5184C85.2706 49.0788 90.1732 49.6393 94.9954 50.1997C99.7373 50.7602 104.559 51.3206 109.301 51.8811C111.391 52.1213 113.481 52.3614 115.651 52.6016C116.213 52.6817 116.454 52.8418 116.454 53.4823C116.454 55.7241 116.936 57.9659 117.901 60.0476C117.981 60.2077 118.142 60.4479 118.062 60.608C117.901 60.8482 117.579 60.6881 117.419 60.608C115.57 60.2878 113.802 59.8874 111.954 59.5672C111.712 59.4871 111.23 59.1669 111.069 59.7273C110.909 60.2077 111.311 60.3678 111.712 60.5279C116.454 62.3694 117.901 67.9739 114.686 71.897C113.239 73.5783 111.391 74.459 109.141 74.459Z" fill="white"/>
<path d="M111.069 34.1065C115.57 34.4268 119.99 34.667 124.491 34.9872C126.42 35.1473 128.349 35.2274 130.278 35.3875C130.921 35.4676 131.162 35.2274 131.242 34.5869C131.323 32.6654 131.403 30.8239 131.483 28.9024C131.644 23.6982 131.805 18.5742 132.046 13.37C132.046 12.9697 132.126 12.6494 132.126 12.2491C132.287 11.2083 133.091 10.5678 134.055 10.6478C135.02 10.7279 135.743 11.4485 135.823 12.4893C135.904 13.37 135.904 14.2507 135.984 15.2115C136.145 18.8944 136.225 22.5773 136.386 26.3403C136.466 29.1426 136.627 31.9448 136.707 34.747C136.707 35.3075 136.949 35.5477 137.511 35.5477C139.52 35.3875 141.53 35.3075 143.539 35.1473C146.513 34.9872 149.406 34.747 152.38 34.5869C153.826 34.5068 155.273 34.4268 156.639 34.2666C156.8 34.2666 156.961 34.2666 157.121 34.2666C157.845 34.2666 158.407 34.667 158.488 35.3075C158.568 35.8679 158.086 36.4284 157.363 36.5084C155.594 36.7486 153.826 37.0689 152.058 37.3091C149.326 37.7094 146.513 38.1097 143.78 38.51C143.298 38.5901 142.896 38.51 142.494 38.2698C139.922 36.7486 137.109 35.948 134.136 35.948C131.162 35.948 128.269 36.5885 125.697 38.1097C125.054 38.43 124.491 38.5901 123.848 38.43C119.428 37.7894 115.088 37.1489 110.667 36.5084C109.542 36.3483 109.14 35.3875 109.783 34.5869C110.105 34.1065 110.587 34.0264 111.069 34.1065Z" fill="white"/>
<defs>
<linearGradient id="paint0_linear_59_104" x1="64.6234" y1="110.221" x2="65.4211" y2="310.389" gradientUnits="userSpaceOnUse">
<stop stop-color="#ED622F"/>
<stop offset="1" stop-color="#D3392A"/>
</linearGradient>
<linearGradient id="paint1_linear_59_104" x1="203.346" y1="109.674" x2="204.144" y2="309.843" gradientUnits="userSpaceOnUse">
<stop stop-color="#ED622F"/>
<stop offset="1" stop-color="#D3392A"/>
</linearGradient>
<linearGradient id="paint2_linear_59_104" x1="133.451" y1="117.943" x2="135.046" y2="-30.9888" gradientUnits="userSpaceOnUse">
<stop stop-color="#ED622F"/>
<stop offset="1" stop-color="#D3392A"/>
</linearGradient>
</defs>
</svg>
